HIERARCHY
ROOT Hips
{
	OFFSET 0.000000 0.000000 0.000000
	CHANNELS 6 Xposition Yposition Zposition Zrotation Yrotation Xrotation 
	JOINT LowerBack
	{
		OFFSET 0.000000 0.000000 0.000000
		CHANNELS 3 Zrotation Yrotation Xrotation
		JOINT Spine
		{
			OFFSET 0.028270 2.035590 -0.193380
			CHANNELS 3 Zrotation Yrotation Xrotation
			JOINT Spine1
			{
				OFFSET 0.056720 2.048850 -0.042750
				CHANNELS 3 Zrotation Yrotation Xrotation
				JOINT Neck
				{
					OFFSET 0.000000 0.000000 0.000000
					CHANNELS 3 Zrotation Yrotation Xrotation
					JOINT Neck1
					{
						OFFSET -0.054170 1.746240 0.172020
						CHANNELS 3 Zrotation Yrotation Xrotation
						JOINT Head
						{
							OFFSET 0.104070 1.761360 -0.123970
							CHANNELS 3 Zrotation Yrotation Xrotation
							End Site
							{
								OFFSET 0.000000 0.000000 0.000000
							}
						}
					}
				}
				JOINT LeftShoulder
				{
					OFFSET 0.000000 0.000000 0.000000
					CHANNELS 3 Zrotation Yrotation Xrotation
					JOINT LeftArm
					{
						OFFSET 3.362410 1.200890 -0.311210
						CHANNELS 3 Zrotation Yrotation Xrotation
						JOINT LeftForeArm
						{
							OFFSET 4.983000 -0.000000 -0.000000
							CHANNELS 3 Zrotation Yrotation Xrotation
							JOINT LeftHand
							{
								OFFSET 3.483560 -0.000000 -0.000000
								CHANNELS 3 Zrotation Yrotation Xrotation
								JOINT LeftFingerBase
								{
									OFFSET 0.000000 0.000000 0.000000
									CHANNELS 3 Zrotation Yrotation Xrotation
									JOINT LeftHandIndex1
									{
										OFFSET 0.715260 -0.000000 -0.000000
										CHANNELS 3 Zrotation Yrotation Xrotation
										End Site
										{
											OFFSET 0.000000 0.000000 0.000000
										}
									}
								}
								JOINT LThumb
								{
									OFFSET 0.000000 0.000000 0.000000
									CHANNELS 3 Zrotation Yrotation Xrotation
									End Site
									{
										OFFSET 0.000000 0.000000 0.000000
									}
								}
							}
						}
					}
				}
				JOINT RightShoulder
				{
					OFFSET 0.000000 0.000000 0.000000
					CHANNELS 3 Zrotation Yrotation Xrotation
					JOINT RightArm
					{
						OFFSET -3.136600 1.374050 -0.404650
						CHANNELS 3 Zrotation Yrotation Xrotation
						JOINT RightForeArm
						{
							OFFSET -5.241900 -0.000000 -0.000000
							CHANNELS 3 Zrotation Yrotation Xrotation
							JOINT RightHand
							{
								OFFSET -3.444170 -0.000000 -0.000000
								CHANNELS 3 Zrotation Yrotation Xrotation
								JOINT RightFingerBase
								{
									OFFSET 0.000000 0.000000 0.000000
									CHANNELS 3 Zrotation Yrotation Xrotation
									JOINT RightHandIndex1
									{
										OFFSET -0.622530 -0.000000 -0.000000
										CHANNELS 3 Zrotation Yrotation Xrotation
										End Site
										{
											OFFSET 0.000000 0.000000 0.000000
										}
									}
								}
								JOINT RThumb
								{
									OFFSET 0.000000 0.000000 0.000000
									CHANNELS 3 Zrotation Yrotation Xrotation
									End Site
									{
										OFFSET 0.000000 0.000000 0.000000
									}
								}
							}
						}
					}
				}
			}
		}
	}
}
}
MOTION
Frames: 15
Frame Time: 0.008333
26.832386 16.408799 4.347240 173.134432 -87.518071 -149.103720 6.639127 -3.513033 -2.480270 0.927436 -4.055409 -2.795636 -5.418684 -4.093120 3.018412 6.735484 -14.360375 -7.050294 -2.149314 -0.169095 0.117106 0.000000 0.000000 0.000000 0.454177 5.426748 2.082838 -30.633253 -8.389472 9.716772 -1.496414 -62.544423 -0.004422 1.397566 1.279097 0.016455 -0.145380 0.159260 0.000000 0.000000 0.000000 0.000000 0.000000 0.000000 0.000000 8.665896 -13.664129 1.192044 52.645132 -8.668052 -5.671850 3.896093 32.172310 0.013638 5.910224 3.705393 0.190760 0.113882 -0.052230 0.000000 0.000000 0.000000 0.000000 0.000000 0.000000 0.000000 
26.671870 16.416033 4.301081 -174.153107 -87.677447 -161.768955 7.363186 -3.515175 -2.393030 1.073093 -4.102903 -2.789534 -5.502748 -4.140387 2.968670 6.809104 -14.116542 -7.062958 -2.241495 -0.175945 0.111232 0.000000 0.000000 0.000000 0.325191 5.409786 2.097796 -31.184418 -7.504865 9.781188 -1.536377 -62.416183 -0.004470 1.458514 1.284875 0.017284 -0.148732 0.153337 0.000000 0.000000 0.000000 0.000000 0.000000 0.000000 0.000000 9.072818 -13.457878 1.185904 52.346501 -8.173171 -5.716456 3.912405 31.942517 0.013387 5.837088 3.644227 0.185254 0.114331 -0.051405 0.000000 0.000000 0.000000 0.000000 0.000000 0.000000 0.000000 
26.512291 16.426126 4.253888 -163.332570 -87.921355 -172.577734 7.961258 -3.580462 -2.303477 1.200049 -4.204531 -2.781389 -5.583817 -4.242505 2.927644 6.911626 -13.846202 -7.070061 -2.339663 -0.183277 0.106640 0.000000 0.000000 0.000000 0.208014 5.411587 2.117404 -31.746674 -6.747461 9.907962 -1.582066 -62.182281 -0.004593 1.541976 1.298465 0.018416 -0.152572 0.147322 0.000000 0.000000 0.000000 0.000000 0.000000 0.000000 0.000000 9.539387 -13.260710 1.168963 52.052092 -7.660671 -5.758829 3.924848 31.705382 0.013124 5.766443 3.601799 0.180849 0.114372 -0.050342 -0.000000 0.000000 0.000000 0.000000 0.000000 0.000000 0.000000 
26.353772 16.439045 4.206067 -153.719217 -88.192708 177.793558 8.419552 -3.676381 -2.213311 1.297017 -4.326862 -2.777078 -5.664462 -4.365560 2.878482 7.036153 -13.553508 -7.056317 -2.445862 -0.191492 0.107921 0.000000 0.000000 0.000000 0.130435 5.325257 2.132089 -32.365180 -5.926268 10.042203 -1.628123 -61.916898 -0.004691 1.626770 1.311842 0.019641 -0.156080 0.140895 0.000000 0.000000 0.000000 0.000000 0.000000 0.000000 0.000000 10.055108 -13.060113 1.151106 51.761086 -7.139830 -5.783760 3.935910 31.453513 0.012930 5.681421 3.597739 0.177844 0.114342 -0.049308 -0.000000 0.000000 0.000000 0.000000 0.000000 0.000000 0.000000 
26.196409 16.454638 4.157381 -145.418536 -88.434622 169.466108 8.748749 -3.772358 -2.124360 1.361196 -4.440545 -2.773713 -5.747292 -4.479422 2.831667 7.180881 -13.244702 -7.031945 -2.556734 -0.200153 0.112081 0.000000 0.000000 0.000000 0.069446 5.241704 2.142466 -32.997414 -5.169541 10.226563 -1.676434 -61.572789 -0.004784 1.717570 1.327101 0.020964 -0.159381 0.134148 0.000000 0.000000 0.000000 0.000000 0.000000 0.000000 0.000000 10.611812 -12.848495 1.128884 51.490620 -6.602101 -5.820971 3.946211 31.185630 0.012813 5.587815 3.630257 0.176341 0.114236 -0.048393 -0.000000 0.000000 0.000000 0.000000 0.000000 0.000000 0.000000 
26.040845 16.472845 4.108149 -137.803002 -88.651387 161.819909 8.987468 -3.858084 -2.039883 1.400891 -4.538255 -2.771456 -5.832906 -4.576837 2.787320 7.341078 -12.927192 -6.997558 -2.671048 -0.209157 0.118986 0.000000 0.000000 0.000000 0.021070 5.159543 2.148151 -33.642818 -4.480555 10.463188 -1.726559 -61.153812 -0.004847 1.808723 1.341207 0.022383 -0.162330 0.127150 0.000000 0.000000 0.000000 0.000000 0.000000 0.000000 0.000000 11.198807 -12.629439 1.103276 51.244693 -6.044562 -5.875524 3.956027 30.898238 0.012787 5.479307 3.702382 0.176240 0.114136 -0.047669 -0.000000 0.000000 0.000000 0.000000 0.000000 0.000000 0.000000 
25.887003 16.493537 4.058617 -130.485604 -88.850666 154.472996 9.156573 -3.928974 -1.963460 1.421279 -4.617192 -2.770852 -5.920808 -4.655136 2.745007 7.512226 -12.604460 -6.953037 -2.787419 -0.218396 0.128705 0.000000 0.000000 0.000000 -0.018316 5.073615 2.149532 -34.298405 -3.857419 10.752969 -1.777928 -60.668618 -0.004860 1.892942 1.352903 0.023597 -0.164812 0.119942 0.000000 0.000000 0.000000 0.000000 0.000000 0.000000 0.000000 11.804814 -12.404239 1.075583 51.030488 -5.469223 -5.956746 3.965404 30.588911 0.012850 5.353336 3.812068 0.177139 0.114078 -0.047181 -0.000000 0.000000 0.000000 0.000000 0.000000 0.000000 0.000000 
25.735285 16.516586 4.008832 -123.389397 -89.033935 147.354760 9.267552 -3.981450 -1.896270 1.425170 -4.674797 -2.771918 -6.010703 -4.711832 2.704557 7.690923 -12.275416 -6.898792 -2.904340 -0.227741 0.141099 0.000000 0.000000 0.000000 -0.053997 4.985817 2.147860 -34.955579 -3.302510 11.096732 -1.830091 -60.127083 -0.004812 1.962286 1.364310 0.024806 -0.166767 0.112544 0.000000 0.000000 0.000000 0.000000 0.000000 0.000000 0.000000 12.419450 -12.169246 1.047175 50.857764 -4.878950 -6.078922 3.974387 30.256063 0.012989 5.213583 3.951297 0.178640 0.114047 -0.046949 -0.000000 0.000000 0.000000 0.000000 0.000000 0.000000 0.000000 
25.586196 16.541926 3.959582 -115.850554 -89.207342 139.801619 9.335430 -4.015568 -1.839328 1.416449 -4.712162 -2.776689 -6.101019 -4.748262 2.660004 7.872009 -11.949693 -6.831845 -3.021777 -0.237240 0.157091 0.000000 0.000000 0.000000 -0.082379 4.850373 2.141128 -35.632359 -2.744397 11.467355 -1.880401 -59.566395 -0.004672 2.010297 1.367647 0.025510 -0.167954 0.104979 0.000000 0.000000 0.000000 0.000000 0.000000 0.000000 0.000000 13.034733 -11.934159 1.022524 50.713902 -4.264599 -6.202263 3.982915 29.895121 0.013201 5.039813 4.120868 0.179842 0.114204 -0.046975 -0.000000 0.000000 0.000000 0.000000 0.000000 0.000000 0.000000 
25.439844 16.569418 3.910442 -108.617667 -89.359550 132.563333 9.364724 -4.026810 -1.786123 1.395617 -4.724917 -2.781565 -6.192757 -4.759846 2.617583 8.055661 -11.612310 -6.758343 -3.137372 -0.246593 0.174704 0.000000 0.000000 0.000000 -0.118048 4.732171 2.133997 -36.294800 -2.274405 11.896087 -1.930888 -58.964365 -0.004488 2.036588 1.373522 0.026109 -0.168663 0.097352 0.000000 0.000000 0.000000 0.000000 0.000000 0.000000 0.000000 13.643807 -11.679179 0.999415 50.621715 -3.636050 -6.380539 3.991050 29.513074 0.013433 4.865070 4.294744 0.180645 0.114290 -0.047197 0.000000 0.000000 0.000000 0.000000 0.000000 0.000000 0.000000 
25.296426 16.599023 3.862289 -101.202555 -89.487158 125.152086 9.375967 -4.015893 -1.735976 1.367446 -4.714941 -2.788596 -6.284589 -4.748709 2.570382 8.237496 -11.274340 -6.675344 -3.251853 -0.255910 0.194843 0.000000 0.000000 0.000000 -0.156007 4.581098 2.123657 -36.966724 -1.805130 12.348027 -1.978339 -58.363679 -0.004228 2.039687 1.372165 0.026202 -0.168660 0.089694 0.000000 0.000000 0.000000 0.000000 0.000000 0.000000 0.000000 14.242949 -11.416199 0.982672 50.555781 -2.976396 -6.542461 3.998721 29.104987 0.013679 4.661562 4.475468 0.180147 0.114514 -0.047574 0.000000 0.000000 0.000000 0.000000 0.000000 0.000000 0.000000 
25.156544 16.630608 3.814666 -94.410061 -89.588526 118.368236 9.372471 -3.984233 -1.680596 1.332927 -4.683447 -2.795012 -6.377718 -4.716063 2.520212 8.419385 -10.921466 -6.584779 -3.364293 -0.265065 0.216781 0.000000 0.000000 0.000000 -0.202118 4.427767 2.113968 -37.627397 -1.374028 12.834470 -2.023475 -57.762416 -0.003937 2.018723 1.372039 0.026091 -0.168122 0.082069 0.000000 0.000000 0.000000 0.000000 0.000000 0.000000 0.000000 14.830887 -11.129312 0.971665 50.528018 -2.294062 -6.718192 4.006216 28.676984 0.013891 4.459576 4.640621 0.178449 0.114657 -0.048024 0.000000 0.000000 0.000000 0.000000 0.000000 0.000000 0.000000 
25.020214 16.664149 3.767654 -88.432168 -89.667866 112.398444 9.359971 -3.936318 -1.615096 1.294044 -4.634926 -2.800283 -6.472453 -4.666569 2.464808 8.600720 -10.539025 -6.484479 -3.475115 -0.274097 0.241015 0.000000 0.000000 0.000000 -0.259157 4.275123 2.107287 -38.271439 -0.975318 13.353865 -2.066145 -57.171194 -0.003624 1.977873 1.372417 0.025777 -0.167168 0.074548 0.000000 0.000000 0.000000 0.000000 0.000000 0.000000 0.000000 15.406998 -10.804411 0.966896 50.535732 -1.601512 -6.911020 4.013393 28.237326 0.014039 4.273100 4.777673 0.175850 0.114604 -0.048477 0.000000 0.000000 0.000000 0.000000 0.000000 0.000000 0.000000 
24.887317 16.699479 3.721688 -83.126989 -89.718373 107.100734 9.352533 -3.874896 -1.538583 1.254682 -4.572794 -2.804609 -6.567335 -4.603773 2.403512 8.780837 -10.151759 -6.377296 -3.584483 -0.283001 0.266817 0.000000 0.000000 0.000000 -0.323612 4.097452 2.100491 -38.913771 -0.561247 13.882939 -2.103886 -56.614885 -0.003296 1.920182 1.370016 0.025158 -0.165656 0.067149 0.000000 0.000000 0.000000 0.000000 0.000000 0.000000 0.000000 15.975105 -10.469347 0.970833 50.547966 -0.862301 -7.025462 4.020434 27.780391 0.014115 4.078417 4.888025 0.171450 0.114538 -0.048836 0.000000 0.000000 0.000000 0.000000 0.000000 0.000000 0.000000 
24.758204 16.736568 3.676151 -78.851460 -89.756422 102.821707 9.335210 -3.806611 -1.443919 1.212410 -4.502317 -2.806493 -6.663666 -4.533094 2.335138 8.961873 -9.727756 -6.258877 -3.692870 -0.291822 0.295222 0.000000 0.000000 0.000000 -0.397854 3.917215 2.098658 -39.535195 -0.158657 14.435182 -2.138278 -56.087522 -0.002974 1.850786 1.367696 0.024438 -0.163847 0.059932 0.000000 0.000000 0.000000 0.000000 0.000000 0.000000 0.000000 16.536753 -10.092474 0.981884 50.579347 -0.112234 -7.118765 4.027259 27.320883 0.014095 3.915237 4.957400 0.166748 0.114166 -0.049070 0.000000 0.000000 0.000000 0.000000 0.000000 0.000000 0.000000 
